<svg height="675pt" preserveAspectRatio="xMidYMid meet" viewBox="0 0 1200 675" width="1200pt" xmlns="http://www.w3.org/2000/svg"><g transform="matrix(.1 0 0 -.1 0 675)"><path d="m3792 4822c-10-7-12-97-10-425 2-229-1-417-5-417-5 0-29 18-55 39-113 94-235 135-397 136-159 0-274-40-384-133-124-106-190-224-250-447-28-103-28-452-1-550 60-215 123-330 237-436 113-105 233-149 399-149 180 1 297 45 419 155l40 36 12-78c6-43 12-79 12-81 1-1 58-1 129 0l127 3v1175 1175l-130 3c-71 1-136-2-143-6zm-304-917c114-27 205-87 261-171l31-47v-386-386l-26-40c-86-130-207-195-362-195-207 0-348 121-414 357-30 110-31 388 0 508 42 167 120 278 228 327 110 49 179 57 282 33z"/><path d="m7220 4719c-41-17-68-49-86-101-14-42-14-56-4-94 18-63 43-90 102-110 101-33 206 19 224 111 23 123-49 207-175 204-20 0-47-5-61-10z"/><path d="m1622 4683c-5-10-30-74-56-143s-51-134-55-145c-5-11-23-56-39-100s-51-136-77-205c-25-69-51-136-57-150-15-36-22-54-63-165-20-55-40-109-45-120s-29-76-55-145-50-134-55-145c-44-105-116-305-112-310 3-3 342-5 754-5 656 0 748 2 748 15s-31 99-62 175c-14 33-16 37-93 240-36 96-70 184-75 195-21 47-60 149-60 157 0 4-8 27-19 51-10 23-40 98-66 167-50 136-57 152-73 190-6 14-24 61-41 105s-54 141-83 215l-53 135-127 3c-113 2-128 1-136-15zm160-420c9-27 25-73 37-103 11-30 34-93 51-140 18-47 47-128 67-180 52-141 68-185 106-290 19-52 47-126 61-165 14-38 24-76 21-82-3-10-87-13-370-13-285 0-365 3-365 13s29 97 63 187c7 20 51 145 88 250 17 47 34 94 39 105s25 67 45 125c39 112 65 186 96 264 10 27 19 55 19 62 0 32 27 10 42-33z"/><path d="m9280 4330c0-235 21-209-174-213l-129-2 2-99c1-55 4-104 7-108s70-8 150-8h144v-554c0-582 2-616 46-712 41-93 105-148 209-181 51-16 214-16 285 1l55 13v114c0 97-2 113-15 110-8-3-50-6-93-9-117-6-169 26-196 123-7 27-11 212-11 567v527l153 3 152 3 3 108 3 107h-140c-77 0-146 3-155 6-14 5-16 33-16 205v199h-140-140z"/><path d="m4800 4146c-208-45-366-162-477-351-78-134-123-321-123-520 0-251 67-454 198-596 156-168 323-239 567-239 191 0 327 42 462 142 56 41 153 150 153 172 0 7-36 41-81 75l-81 62-73-70c-50-47-98-82-152-108l-78-38h-130-130l-76 38c-78 39-151 103-198 172-52 76-96 224-89 295l3 35 559 3 559 2-7 155c-6 150-22 256-50 340-74 217-230 367-436 420-91 23-240 28-320 11zm302-264c73-36 120-83 161-161 36-70 63-192 58-258-1-10-90-13-412-13h-412l7 47c21 154 112 304 226 372 70 41 108 50 210 48 86-2 102-5 162-35z"/><path d="m8310 4145c-130-31-217-75-299-152-30-29-59-53-63-53-5 0-8 30-8 68 0 119 8 112-146 112h-134v-810c0-445 3-816 6-825 5-12 30-15 145-15h139v590c0 675-8 614 98 723 102 104 249 153 380 127 119-23 190-72 222-155 37-93 40-150 40-722v-562l136-3c75-2 138-1 140 1 10 10 3 1188-7 1250-28 168-103 297-212 365-104 64-305 92-437 61z"/><path d="m10545 4145c-219-41-398-160-471-315-35-74-51-155-31-163 7-3 71-4 141-3l129 1 11 46c22 85 88 149 192 189 64 23 243 28 303 8 89-30 162-105 190-193 7-24 11-79 9-140l-3-100-134 3c-363 8-593-53-740-198-107-106-148-215-139-376 6-99 26-169 69-230 79-116 181-184 329-220 72-17 239-17 313 1 79 18 193 77 253 129 27 24 55 41 62 39 6-3 12-21 13-41 0-20 5-53 12-72l12-35 110-5c156-7 198-3 192 18-52 161-50 131-57 707-6 523-7 542-29 603-44 127-134 231-249 287-138 68-322 90-487 60zm475-1051v-175l-30-44c-31-45-125-118-192-148-55-25-186-50-232-44-131 19-229 86-265 183-55 145 7 285 155 350 88 39 183 52 382 53l182 1z"/><path d="m5600 4116c0-5 9-28 31-81 4-11 15-40 23-65s36-101 61-170 53-145 61-170 19-54 23-65c9-22 57-152 73-200 5-16 14-39 18-50 5-11 20-54 35-95s35-99 46-127c10-29 28-77 38-105 11-29 31-87 46-128s35-99 46-127c10-29 28-79 40-110 12-32 29-78 38-103l17-45h109 109l17 45c9 25 27 72 39 105s26 69 30 80c5 11 25 67 45 125 36 104 58 164 90 250 9 25 23 63 30 85s32 92 55 155 59 167 81 230 44 125 50 138c19 47 28 69 54 147 15 44 30 89 35 100 4 11 13 36 20 55 12 36 20 55 39 103l11 27h-148-147l-24-77c-13-43-43-136-66-208-24-71-80-245-125-385-78-243-107-334-161-498-13-39-27-71-32-69-5 1-28 61-52 132-23 72-61 186-84 255s-64 195-92 280-58 178-68 205c-10 28-24 68-30 90-7 22-16 49-21 60s-22 63-38 115l-29 95-147 3c-80 1-146 0-146-2z"/><path d="m7150 3296v-825l118-3c64-2 127-2 140 0l22 3v825 824h-140-140z"/><path d="m925 2853c-3-10-22-61-41-113s-39-104-45-115c-12-27-49-136-49-147 0-4 67-8 148-8h148l28 78c79 222 106 300 106 311 0 8-44 11-144 11-128 0-145-2-151-17z"/><path d="m2300 2862c0-5 13-44 29-88 16-43 43-119 61-169 53-150 30-135 203-135 138 0 149 1 142 18-4 9-11 28-15 42-5 14-35 95-68 180l-61 155-145 3c-80 1-146-1-146-6z"/></g></svg>