<svg height="300pt" preserveAspectRatio="xMidYMid meet" viewBox="0 0 500 300" width="500pt" xmlns="http://www.w3.org/2000/svg"><g transform="matrix(.1 0 0 -.1 0 300)"><path d="m780 1961c-41-13-84-38-104-60l-19-21h362c400 0 403 0 458-63 35-40 49-90 39-139-9-44-233-435-277-482-33-36-41-40-95-43-85-6-108 12-190 149-101 168-160 254-191 276-34 23-93 44-93 32 0-8 195-356 253-451 50-82 95-112 173-117 154-10 167 3 373 367l161 285v65c0 83-30 139-98 178l-47 28-340 2c-187 1-351-2-365-6z"/><path d="m4250 1705c0-63-2-115-4-115-3 0-17 11-32 25-51 48-168 47-236-1-61-43-88-101-88-187 0-85 24-142 78-187 75-62 195-62 240 0 28 37 47 38 66 2 8-16 22-35 31-42 45-38 54 75 38 463l-6 157h-44-43zm-60-161c58-50 75-118 46-188-42-100-192-102-239-3s17 217 118 217c32 0 51-7 75-26z"/><path d="m1880 1645c0-2 32-50 70-106 39-56 70-106 70-112 0-5-34-58-76-118l-75-109h55 55l48 70c26 38 51 70 55 70 3 0 29-31 57-70l51-70h55c30 0 55 2 55 5s-36 54-80 114l-79 109 74 103c41 57 75 107 75 112 0 4-24 7-52 5l-53-3-45-67c-25-37-48-67-52-68-4 0-27 32-52 70l-46 70h-55c-30 0-55-2-55-5z"/><path d="m2495 1631c-109-49-161-176-120-292 50-139 228-188 360-98 41 28 43 38 11 68l-25 23-31-22c-100-71-233-4-233 117 0 47 20 82 67 117 39 29 114 29 155-1 38-29 41-28 69 8 21 25 22 32 10 46-42 51-185 70-263 34z"/><path d="m2980 1634c-45-20-87-59-111-106-27-53-26-157 2-215 56-116 212-154 338-82l52 30-21 29c-25 35-34 36-66 11-69-54-207-20-229 57l-6 22h175 176v58c-1 132-83 213-217 212-32-1-74-8-93-16zm161-80c26-13 68-79 57-89-7-7-248-8-254-2-13 12 20 70 50 88 38 23 106 25 147 3z"/><path d="m3495 1631c-51-24-80-52-106-103-17-34-20-55-17-118 4-93 33-144 104-186 80-47 209-36 284 25l24 19-26 27-27 27-33-20c-71-43-156-35-210 18-56 56-47 60 147 60h175v58c-1 132-83 212-217 212-35 0-74-8-98-19zm166-77c28-14 67-79 56-91-7-6-248-6-254 1-12 12 21 66 51 86 38 24 105 26 147 4z"/></g></svg>