
<svg viewBox="0 0 595.28 772.8" xmlns="http://www.w3.org/2000/svg"><path d="m249.3 420.54a395.66 395.66 0 0 1 69.27-60.39c-28.09-144.5-129.18-230.38-142.49-241.3-16.92 11.73-167.69 120.22-175.75 319.83s133.48 319.89 149.4 332.95c-3.8-20.23-34.91-203.36 99.57-351.09z" fill="#31ad6b"/><path d="m589.51 288.51c-17.14-1.58-149.43-11.49-270.94 71.64a395.66 395.66 0 0 0 -69.27 60.39c-134.48 147.73-103.37 330.86-99.57 351.09 20.5 1.89 205.73 15.7 340.21-132s103.37-330.89 99.57-351.12z" fill="#016930"/><path d="m316.79 95.38.22.51c.6 1.52 1.23 3 1.94 4.5l55 127.91 126.95-52.37a71.6 71.6 0 0 0 8.46-3.48l.16-.07a70.15212933 70.15212933 0 0 0 -61.33-126.19 70.14160107 70.14160107 0 1 0 -131.38 49.18z" fill="#e73442"/></svg>