<?xml version="1.0" standalone="no"?>
<!DOCTYPE svg PUBLIC "-//W3C//DTD SVG 20010904//EN"
 "http://www.w3.org/TR/2001/REC-SVG-20010904/DTD/svg10.dtd">
<svg version="1.0" xmlns="http://www.w3.org/2000/svg"
 width="200.000000pt" height="100.000000pt" viewBox="0 0 200.000000 100.000000"
 preserveAspectRatio="xMidYMid meet">

<g transform="translate(0.000000,100.000000) scale(0.100000,-0.100000)"
fill="#000000" stroke="none">
<path d="M117 603 c-4 -3 -7 -51 -7 -105 0 -91 1 -98 20 -98 17 0 20 7 20 45
l0 45 50 0 50 0 0 -45 c0 -38 3 -45 20 -45 19 0 20 7 20 105 0 98 -1 105 -20
105 -17 0 -20 -7 -20 -46 l0 -45 -47 3 -48 3 -3 43 c-3 39 -17 53 -35 35z"/>
<path d="M383 600 c-13 -5 -32 -24 -43 -42 -63 -100 68 -211 151 -129 23 24
29 38 29 73 -1 79 -66 126 -137 98z m81 -46 c35 -35 6 -124 -39 -124 -24 0
-65 46 -65 72 0 57 66 90 104 52z"/>
<path d="M540 590 c0 -16 7 -20 30 -20 l30 0 0 -85 c0 -78 2 -85 20 -85 18 0
20 7 20 85 l0 85 35 0 c28 0 35 4 35 20 0 18 -7 20 -85 20 -78 0 -85 -2 -85
-20z"/>
<path d="M740 505 l0 -105 70 0 c56 0 70 3 70 15 0 11 -12 15 -50 15 -49 0
-50 1 -50 30 0 28 2 30 40 30 29 0 40 4 40 15 0 11 -11 15 -40 15 -36 0 -40 3
-40 25 0 23 3 25 50 25 43 0 50 3 50 20 0 18 -7 20 -70 20 l-70 0 0 -105z"/>
<path d="M910 505 l0 -105 75 0 c59 0 75 3 75 14 0 11 -15 16 -52 18 l-53 3
-3 88 c-3 79 -5 87 -22 87 -19 0 -20 -7 -20 -105z"/>
<path d="M1087 604 c-4 -4 -7 -52 -7 -106 l0 -98 75 0 c59 0 75 3 75 14 0 11
-15 16 -52 18 -49 3 -53 5 -56 31 -3 26 -2 27 42 27 33 0 46 4 46 14 0 10 -14
16 -42 18 -35 2 -44 7 -46 25 -3 20 2 22 50 25 39 2 53 7 53 18 0 12 -15 16
-65 18 -36 2 -69 0 -73 -4z"/>
<path d="M1260 505 c0 -98 1 -105 20 -105 16 0 20 7 20 35 0 29 4 35 20 35 13
0 28 -13 41 -35 12 -20 29 -35 40 -35 24 0 24 8 0 44 -19 29 -19 29 0 56 15
19 18 34 13 54 -9 39 -41 56 -101 56 l-53 0 0 -105z m110 61 c0 -2 3 -11 6
-19 7 -20 -22 -47 -52 -47 -21 0 -24 5 -24 35 0 33 2 35 35 35 19 0 35 -2 35
-4z"/>
<path d="M1452 529 c3 -74 6 -83 31 -105 34 -29 86 -32 118 -5 21 17 24 29 28
106 3 80 2 87 -15 83 -16 -3 -19 -14 -22 -73 -2 -57 -6 -73 -23 -87 -27 -23
-35 -22 -59 2 -16 16 -20 33 -20 90 0 65 -2 70 -21 70 -20 0 -21 -4 -17 -81z"/>
<path d="M1677 603 c-4 -3 -7 -51 -7 -105 0 -91 1 -98 20 -98 17 0 19 8 22 68
l3 67 25 -48 c29 -57 46 -57 77 -2 l23 40 0 -62 c0 -56 2 -63 20 -63 19 0 20
7 20 105 0 96 -2 105 -19 105 -12 0 -28 -18 -47 -55 -16 -30 -32 -55 -35 -55
-4 0 -19 25 -35 55 -27 50 -49 67 -67 48z"/>
</g>
</svg>
