<svg height="211pt" preserveAspectRatio="xMidYMid meet" viewBox="0 0 739 211" width="739pt" xmlns="http://www.w3.org/2000/svg"><g transform="matrix(.1 0 0 -.1 0 211)"><path d="m503 1845c-34-14-63-59-63-97 0-56 27-75 485-340 571-330 563-325 670-388 188-110 211-120 260-120s89 16 117 46c9 11 109 180 222 378 220 384 223 391 189 463-11 24-30 42-57 54-39 18-86 19-916 18-723 0-881-2-907-14z"/><path d="m5597 1634c-4-4-7-241-7-526v-518h115 115l-2 523-3 522-106 3c-58 1-108-1-112-4z"/><path d="m4024 1351c-83-24-143-61-197-121-68-76-91-143-92-265 0-91 3-106 31-165 57-122 136-186 270-221 92-24 173-20 260 12 92 35 196 132 168 158-5 5-39 17-76 27l-67 18-49-27c-103-56-239-22-289 72-12 24-20 47-17 52s127 9 276 9h271l-5 98c-7 131-34 199-108 274-47 46-68 60-124 77-82 25-168 26-252 2zm197-178c17-15 38-42 45-60 27-64 31-63-146-63h-160l6 28c11 44 23 61 66 92 34 25 51 30 99 30s63-4 90-27z"/><path d="m4934 1350c-160-47-255-154-286-320s63-349 215-421c34-15 96-34 139-40 65-11 86-10 143 4 37 9 87 27 112 39 54 27 135 111 127 131-8 22-151 54-173 39-103-76-262-45-317 60-31 60-40 58 256 58 239 0 271 2 277 16 13 35-15 193-47 258-77 162-255 233-446 176zm191-170c34-21 65-73 65-109 0-20-4-21-155-21h-155v24c0 33 39 86 80 107 47 26 123 25 165-1z"/><path d="m6290 1354c-123-33-215-106-267-211-26-54-28-67-28-174 0-111 1-117 34-182 71-140 206-217 381-217s310 77 380 216c30 58 35 78 38 158 5 113-13 182-68 259-96 133-295 198-470 151zm219-214c53-31 82-78 88-148 9-99-26-169-101-203-108-49-231 1-267 108-17 52-6 147 22 188 56 81 168 105 258 55z"/><path d="m2947 1343c-4-3-7-44-7-90v-83h190c105 0 190-4 190-8s-88-83-195-175l-195-167v-115-115l338 2 337 3v85 85l-207 3c-115 1-208 6-207 10 0 4 90 81 200 172 109 91 202 174 205 185 2 11 4 63 2 115l-3 95-321 3c-176 1-323-1-327-5z"/><path d="m756 1147c-35-20-62-61-247-386-115-201-211-377-214-393-9-39 10-89 46-124l30-29 893-3c576-1 903 1 920 8 14 5 35 24 46 42 42 69 19 118-82 179-40 23-341 197-668 386-544 314-598 343-640 343-28 0-60-9-84-23z"/></g></svg>